<svg width="50" height="50" viewBox="0 0 50 50" fill="none" xmlns="http://www.w3.org/2000/svg">
<g clip-path="url(#clip0)">
<path d="M34.5488 27.5695H12.6738C11.8113 27.5695 11.1113 26.8695 11.1113 26.007C11.1113 25.1445 11.8113 24.4445 12.6738 24.4445H34.5488C35.4113 24.4445 36.1113 25.1445 36.1113 26.007C36.1113 26.8695 35.4113 27.5695 34.5488 27.5695Z" fill="#3D3D3D"/>
<path d="M23.7847 38.3333C22.9222 38.3333 22.2222 37.6333 22.2222 36.7708V14.8958C22.2222 14.0333 22.9222 13.3333 23.7847 13.3333C24.6472 13.3333 25.3472 14.0333 25.3472 14.8958V36.7708C25.3472 37.6333 24.6472 38.3333 23.7847 38.3333Z" fill="#3D3D3D"/>
<rect x="1.5" y="3.72223" width="44.7778" height="44.7778" rx="8.5" stroke="#3D3D3D" stroke-width="3"/>
</g>
<defs>
<clipPath id="clip0">
<rect width="50" height="50" fill="white"/>
</clipPath>
</defs>
</svg>
