<svg width="92" height="92" viewBox="0 0 92 92" fill="none" xmlns="http://www.w3.org/2000/svg">
<path d="M46 0C20.6346 0 0 20.6346 0 46C0 71.3654 20.6346 92 46 92C71.3654 92 92 71.3654 92 46C92 20.6346 71.3654 0 46 0ZM66.125 49.8331H49.8331V66.125C49.8331 68.2412 48.1162 69.9581 46 69.9581C43.8838 69.9581 42.1669 68.2412 42.1669 66.125V49.8331H25.875C23.7588 49.8331 22.0419 48.1162 22.0419 46C22.0419 43.8838 23.7588 42.1669 25.875 42.1669H42.1669V25.875C42.1669 23.7588 43.8838 22.0419 46 22.0419C48.1162 22.0419 49.8331 23.7588 49.8331 25.875V42.1669H66.125C68.2412 42.1669 69.9581 43.8838 69.9581 46C69.9581 48.1162 68.2412 49.8331 66.125 49.8331Z" fill="#3D88AF"/>
</svg>
